<svg width="30" height="30" fill="none" xmlns="http://www.w3.org/2000/svg"><path d="M29.349 13.595a2.3 2.3 0 0 0 .544-2.301c-.255-.82-.92-1.405-1.737-1.529l-7.264-1.102a.953.953 0 0 1-.715-.542l-3.247-6.87C16.565.48 15.825 0 15 0c-.824 0-1.564.48-1.929 1.252l-3.248 6.87a.954.954 0 0 1-.715.542L1.844 9.766c-.816.123-1.482.709-1.737 1.528a2.3 2.3 0 0 0 .544 2.302l5.256 5.347c.224.229.326.557.274.878l-1.24 7.55c-.11.665.057 1.312.469 1.821.64.795 1.758 1.037 2.652.546l6.496-3.565a.936.936 0 0 1 .884 0l6.497 3.566c.316.173.653.261 1 .261.636 0 1.238-.295 1.652-.808.412-.51.579-1.157.469-1.82l-1.24-7.55a1.02 1.02 0 0 1 .273-.879l5.256-5.348Z" fill="#006255"/></svg>