<svg width="18" height="18" fill="none" xmlns="http://www.w3.org/2000/svg"><path fill-rule="evenodd" clip-rule="evenodd" d="M6.032 1.843C6.8 1.808 7.045 1.8 9 1.8c1.956 0 2.2.009 2.968.043.767.035 1.29.158 1.749.335.48.181.915.465 1.275.831.366.36.65.794.83 1.275.178.458.3.981.335 1.747.035.77.043 1.014.043 2.97 0 1.955-.008 2.2-.043 2.968-.035.766-.157 1.29-.335 1.747-.18.48-.464.916-.83 1.276-.36.366-.795.65-1.275.83-.458.178-.982.3-1.748.335-.768.035-1.013.043-2.969.043-1.955 0-2.2-.008-2.968-.043-.766-.035-1.29-.157-1.748-.335a3.532 3.532 0 0 1-1.275-.83 3.53 3.53 0 0 1-.831-1.275c-.177-.458-.3-.982-.335-1.748C1.808 11.2 1.8 10.955 1.8 9c0-1.955.009-2.2.043-2.967.035-.768.158-1.291.335-1.75.181-.48.465-.915.831-1.274a3.53 3.53 0 0 1 1.275-.831c.458-.177.981-.3 1.747-.335ZM11.91 3.14c-.76-.034-.987-.041-2.91-.041-1.922 0-2.15.007-2.91.041-.701.033-1.082.15-1.336.249-.336.13-.576.286-.828.538a2.233 2.233 0 0 0-.538.828c-.1.254-.216.635-.249 1.337-.034.76-.041.987-.041 2.91 0 1.922.007 2.15.041 2.909.033.702.15 1.083.249 1.337.115.312.299.596.538.828.232.239.515.423.828.538.254.099.635.216 1.337.248.76.035.986.042 2.91.042 1.922 0 2.15-.007 2.909-.042.702-.032 1.083-.15 1.337-.248.336-.13.576-.286.828-.538.239-.232.423-.516.538-.828.099-.254.216-.635.248-1.337.035-.76.042-.987.042-2.91 0-1.922-.007-2.15-.042-2.91-.032-.701-.15-1.082-.248-1.336a2.236 2.236 0 0 0-.538-.828 2.234 2.234 0 0 0-.828-.538c-.254-.1-.635-.216-1.337-.249Zm-3.83 8.08a2.402 2.402 0 1 0 1.73-4.48 2.402 2.402 0 0 0-1.73 4.48ZM6.384 6.384a3.701 3.701 0 1 1 5.234 5.234 3.701 3.701 0 0 1-5.234-5.234Zm7.139-.532a.875.875 0 1 0-1.201-1.274.875.875 0 0 0 1.2 1.274Z"/></svg>