<svg width="18" height="18" fill="none" xmlns="http://www.w3.org/2000/svg"><path clip-rule="evenodd" d="M9 10.5a3.001 3.001 0 0 0 0-6 3.001 3.001 0 0 0 0 6Z" stroke="#282828" stroke-width="1.2" stroke-linecap="round" stroke-linejoin="round"/><path d="M14.222 16.403C13.972 14.357 11.73 12.75 9 12.75c-2.728 0-4.972 1.607-5.222 3.652" stroke="#282828" stroke-width="1.2" stroke-linecap="round" stroke-linejoin="round"/><path d="M1.595 14.25a3.01 3.01 0 0 1-.095-.75v-9a3 3 0 0 1 3-3h9a3 3 0 0 1 3 3v9a3 3 0 0 1-3 3h-9a3 3 0 0 1-2.905-2.25" stroke="#006255" stroke-width="1.2" stroke-linecap="round" stroke-linejoin="round"/></svg>