<svg width="18" height="18" fill="none" xmlns="http://www.w3.org/2000/svg"><path d="M16.875 8.951c0-.039 0-.083-.002-.134l-.009-.472c-.014-.49-.038-.98-.077-1.44-.053-.635-.13-1.164-.235-1.561a2.453 2.453 0 0 0-1.728-1.732c-.498-.133-1.472-.216-2.843-.267-.652-.024-1.35-.04-2.048-.049l-.675-.007h-.516l-.675.007c-.698.009-1.396.025-2.048.05-1.371.052-2.347.135-2.843.266a2.45 2.45 0 0 0-1.728 1.732c-.107.397-.182.926-.235 1.56-.039.461-.063.95-.077 1.44-.006.171-.007.331-.01.473l-.001.134v.098c0 .04 0 .083.002.134l.009.473c.014.49.038.979.077 1.44.053.634.13 1.163.235 1.56a2.45 2.45 0 0 0 1.728 1.732c.496.133 1.472.216 2.843.267.652.025 1.35.04 2.048.05l.675.006h.516a82.774 82.774 0 0 0 2.723-.056c1.371-.053 2.347-.135 2.843-.267a2.447 2.447 0 0 0 1.728-1.732c.107-.397.182-.926.235-1.56.039-.461.063-.95.078-1.44.005-.17.007-.33.008-.473l.002-.134v-.098Zm-1.266.091-.001.125c-.002.137-.006.288-.01.452-.012.467-.036.935-.073 1.37-.048.565-.114 1.03-.197 1.34a1.183 1.183 0 0 1-.833.835c-.37.099-1.3.178-2.563.226a79.95 79.95 0 0 1-2.68.054h-.503l-.665-.005a80.158 80.158 0 0 1-2.016-.05c-1.264-.049-2.196-.126-2.563-.224a1.186 1.186 0 0 1-.833-.835c-.083-.312-.15-.776-.197-1.342-.037-.434-.06-.902-.074-1.369-.005-.164-.007-.316-.009-.452l-.001-.125v-.084l.001-.125c.002-.137.006-.288.01-.452.011-.467.036-.935.073-1.369.047-.566.114-1.03.197-1.341.109-.406.429-.728.833-.835.37-.099 1.3-.178 2.563-.225a79.857 79.857 0 0 1 2.68-.055h.503l.665.006c.687.009 1.374.024 2.016.049 1.264.05 2.195.127 2.563.225.404.109.724.429.833.835.083.311.15.775.197 1.341.037.434.06.902.074 1.37.005.163.007.316.009.451l.001.125v.084Zm-8.173 2.314 4.078-2.373-4.078-2.338v4.71Z"/></svg>