<svg width="30" height="30" fill="none" xmlns="http://www.w3.org/2000/svg"><path d="M28.28 12.544a.8.8 0 0 0 .18-.805c-.092-.298-.307-.457-.529-.49l.348 1.295Zm0 0-5.257 5.348a2.52 2.52 0 0 0-.684 2.172l1.24 7.55.001.003a.768.768 0 0 1-.155.632l-.002.001a.624.624 0 0 1-.483.25.56.56 0 0 1-.278-.076h-.001l-6.497-3.566-.005-.002a2.436 2.436 0 0 0-2.321.002h-.002l-6.495 3.565a.612.612 0 0 1-.763-.172l-.002-.002a.769.769 0 0 1-.155-.633v-.001l1.24-7.55a2.52 2.52 0 0 0-.684-2.173L1.72 12.545a.8.8 0 0 1-.182-.805c.093-.298.31-.458.53-.491l7.264-1.102a2.454 2.454 0 0 0 1.846-1.384v-.001l3.248-6.87c.128-.27.354-.392.573-.392.22 0 .446.122.573.392l3.248 6.87a2.453 2.453 0 0 0 1.846 1.384l7.264 1.102.348 1.296Z" stroke="#006255" stroke-width="3"/></svg>