<svg width="139" height="33" fill="none" xmlns="http://www.w3.org/2000/svg"><path d="M53.943 22.388c0 .072-.036.576-.108 1.512H39.183c.264 1.2.888 2.148 1.872 2.844.984.696 2.208 1.044 3.672 1.044 1.008 0 1.896-.144 2.664-.432.792-.312 1.524-.792 2.196-1.44l2.988 3.24c-1.824 2.088-4.488 3.132-7.992 3.132-2.184 0-4.116-.42-5.796-1.26-1.68-.864-2.976-2.052-3.888-3.564-.912-1.512-1.368-3.228-1.368-5.148 0-1.896.444-3.6 1.332-5.112a9.451 9.451 0 0 1 3.708-3.564c1.584-.864 3.348-1.296 5.292-1.296 1.896 0 3.612.408 5.148 1.224a8.786 8.786 0 0 1 3.6 3.528c.888 1.512 1.332 3.276 1.332 5.292Zm-10.044-5.796c-1.272 0-2.34.36-3.204 1.08-.864.72-1.392 1.704-1.584 2.952h9.54c-.192-1.224-.72-2.196-1.584-2.916-.864-.744-1.92-1.116-3.168-1.116Zm19.147-1.404c.672-.936 1.572-1.644 2.7-2.124 1.152-.48 2.472-.72 3.96-.72v5.184a20.268 20.268 0 0 0-1.26-.072c-1.608 0-2.868.456-3.78 1.368-.912.888-1.368 2.232-1.368 4.032V32h-5.616V12.632h5.364v2.556Zm28.795 7.2c0 .072-.036.576-.108 1.512H77.081c.264 1.2.888 2.148 1.872 2.844.984.696 2.208 1.044 3.672 1.044 1.008 0 1.896-.144 2.664-.432.792-.312 1.524-.792 2.196-1.44l2.988 3.24c-1.824 2.088-4.488 3.132-7.992 3.132-2.184 0-4.116-.42-5.796-1.26-1.68-.864-2.976-2.052-3.888-3.564-.912-1.512-1.368-3.228-1.368-5.148 0-1.896.444-3.6 1.332-5.112a9.451 9.451 0 0 1 3.708-3.564c1.584-.864 3.348-1.296 5.292-1.296 1.896 0 3.612.408 5.148 1.224a8.786 8.786 0 0 1 3.6 3.528c.888 1.512 1.332 3.276 1.332 5.292Zm-10.044-5.796c-1.272 0-2.34.36-3.204 1.08-.864.72-1.392 1.704-1.584 2.952h9.54c-.192-1.224-.72-2.196-1.584-2.916-.864-.744-1.92-1.116-3.168-1.116Zm22.099 7.812-2.7 2.664V32H95.58V5.288h5.616v15.12l8.208-7.776h6.696l-8.064 8.208L116.82 32h-6.804l-6.12-7.596Zm33.578-2.016c0 .072-.036.576-.108 1.512h-14.652c.264 1.2.888 2.148 1.872 2.844.984.696 2.208 1.044 3.672 1.044 1.008 0 1.896-.144 2.664-.432.792-.312 1.524-.792 2.196-1.44l2.988 3.24c-1.824 2.088-4.488 3.132-7.992 3.132-2.184 0-4.116-.42-5.796-1.26-1.68-.864-2.976-2.052-3.888-3.564-.912-1.512-1.368-3.228-1.368-5.148 0-1.896.444-3.6 1.332-5.112a9.451 9.451 0 0 1 3.708-3.564c1.584-.864 3.348-1.296 5.292-1.296 1.896 0 3.612.408 5.148 1.224a8.786 8.786 0 0 1 3.6 3.528c.888 1.512 1.332 3.276 1.332 5.292Zm-10.044-5.796c-1.272 0-2.34.36-3.204 1.08-.864.72-1.392 1.704-1.584 2.952h9.54c-.192-1.224-.72-2.196-1.584-2.916-.864-.744-1.92-1.116-3.168-1.116Z" fill="#006255"/><mask id="a" style="mask-type:alpha" maskUnits="userSpaceOnUse" x="0" y="0" width="32" height="32"><path fill="#C4C4C4" d="M0 0h32v32H0z"/></mask><g mask="url(#a)"><path fill="#006255" d="M0 0h32v32H0z"/><path d="M15.687 14.58c-3.017-.861-2.129-8.19-6.315-10.525C.972-.63-1 28-1 28c.834 1.426-.188 3.436.75 4.75 0 0 4.007-16.064 7.516-15.362 3.509.702 5.1 8.401 9.749 8.51 5.48.127 6.062-10.178 9.9-9.914C31.65 16.311 32 25.25 32 25.25c.894-1.694.605-1.757 1.25-3.5 0 0-2.124-17.695-7.738-16.994-6.572.822-4.912 11.228-9.825 9.825Z" fill="#fff"/></g></svg>